<?xml version="1.0" encoding="utf-8"?>
<!-- Generator: Adobe Illustrator 27.0.0, SVG Export Plug-In . SVG Version: 6.00 Build 0)  -->
<svg version="1.1" id="Layer_1" xmlns="http://www.w3.org/2000/svg" xmlns:xlink="http://www.w3.org/1999/xlink" x="0px" y="0px"
	 viewBox="0 0 120 33" style="enable-background:new 0 0 120 33;" xml:space="preserve">
<style type="text/css">
	.st0{fill:#FFFFFF;}
	.st1{fill:#7E39FF;}
</style>
<path class="st0" d="M37.6,17.3c0-5.5,2.8-8.9,7.1-8.9c2.5,0,4.4,1.3,5.3,3.3H50v-9h4.7V26h-4.7v-3H50c-0.8,1.9-2.8,3.3-5.4,3.3
	C40.3,26.3,37.6,22.9,37.6,17.3z M42.4,17.4c0,3.2,1.5,5.1,3.8,5.1c2.3,0,3.8-2,3.8-5.1c0-3.1-1.5-5.1-3.8-5.1
	C43.8,12.2,42.4,14.2,42.4,17.4z"/>
<path class="st0" d="M57.8,4.3c0-1.4,1.1-2.4,2.5-2.4c1.4,0,2.5,1.1,2.5,2.4s-1.1,2.4-2.5,2.4C58.9,6.8,57.8,5.7,57.8,4.3z M58,8.7
	h4.7V26H58V8.7z"/>
<path class="st0" d="M65.8,27.3h4.6c0.4,1.2,1.7,2,3.5,2c2.4,0,3.8-1.4,3.8-3.4v-3h-0.1c-0.8,1.9-2.8,3.1-5.4,3.1
	c-4.2,0-7-3.3-7-8.7c0-5.5,2.7-8.9,7.1-8.9c2.5,0,4.4,1.3,5.4,3.3h0.1v-3h4.7v17.1c0,4.1-3.5,6.8-8.6,6.8
	C69.2,32.5,66.1,30.3,65.8,27.3z M77.7,17.3c0-3.1-1.5-5.1-3.8-5.1c-2.3,0-3.8,2-3.8,5.1s1.5,5,3.8,5C76.2,22.3,77.7,20.4,77.7,17.3
	z"/>
<path class="st0" d="M85.4,4.3c0-1.4,1.1-2.4,2.5-2.4s2.5,1.1,2.5,2.4s-1.1,2.4-2.5,2.4C86.5,6.8,85.4,5.7,85.4,4.3z M85.6,8.7h4.7
	V26h-4.7V8.7z"/>
<path class="st0" d="M99.5,4.7v4h3.2v3.6h-3.2v8.3c0,1.3,0.6,2,2,2c0.4,0,0.9,0,1.2-0.1v3.5c-0.5,0.1-1.3,0.2-2.2,0.2
	c-4.1,0-5.7-1.4-5.7-4.7v-9.1h-2.4V8.7h2.4v-4L99.5,4.7L99.5,4.7z"/>
<path class="st0" d="M112.3,8.3c4.3,0,7.2,2.2,7.2,5.6h-4.3c-0.1-1.4-1.2-2.2-3-2.2c-1.6,0-2.7,0.7-2.7,1.9c0,0.9,0.7,1.4,2.3,1.8
	l3.3,0.7c3.5,0.8,4.9,2.1,4.9,4.7c0,3.4-3.2,5.7-7.7,5.7c-4.6,0-7.5-2.2-7.7-5.6h4.6c0.2,1.5,1.4,2.3,3.3,2.3c1.8,0,2.9-0.7,2.9-1.9
	c0-0.9-0.6-1.4-2.1-1.7l-3.2-0.7c-3.3-0.7-5-2.4-5-5C105,10.5,107.8,8.3,112.3,8.3z"/>
<path class="st0" d="M0,14l2.1-6.5c4.8,1.7,8.3,3.2,10.5,4.4c-0.6-5.5-0.9-9.3-0.9-11.3h6.6c-0.1,3-0.5,6.8-1,11.3
	c3.1-1.6,6.7-3,10.7-4.4l2.1,6.5c-3.8,1.3-7.6,2.1-11.3,2.6c1.9,1.6,4.5,4.5,7.8,8.6L21.2,29c-1.7-2.4-3.8-5.7-6.2-9.8
	c-2.2,4.3-4.2,7.6-5.9,9.8l-5.4-3.9c3.5-4.3,6.1-7.2,7.6-8.6C7.2,15.8,3.5,14.9,0,14z"/>
<path class="st1" d="M24.2,29.6l-0.3-0.4c-1.6-2.2-3.6-5.3-5.8-9c-2.1,3.9-3.9,6.9-5.5,9l-0.3,0.4L6,25.1l0.3-0.4
	c3-3.7,5.3-6.4,6.9-7.9c-3.6-0.7-7-1.5-10.2-2.4l-0.5-0.1l2.4-7.5l0.5,0.2c4.2,1.5,7.5,2.8,9.7,4c-0.5-5-0.8-8.5-0.8-10.4V0H22v0.5
	c-0.1,2.8-0.4,6.3-0.9,10.4c2.9-1.4,6.3-2.8,9.9-4l0.5-0.2l2.4,7.5l-0.5,0.2c-3.5,1.2-6.9,2-10.3,2.4c1.8,1.7,4.2,4.3,7,7.9l0.3,0.4
	L24.2,29.6z M18,18l0.5,0.8c2.2,3.8,4.2,7,5.9,9.3l4.6-3.3c-3.1-3.8-5.7-6.6-7.4-8.1L20.7,16l1.2-0.1c3.5-0.4,7.1-1.2,10.7-2.4
	L30.8,8c-3.8,1.3-7.2,2.7-10.2,4.2l-0.9,0.5l0.1-1c0.6-4.2,0.9-7.8,1-10.7h-5.5c0.1,2.1,0.4,5.7,0.9,10.7l0.1,1l-0.9-0.5
	C13.5,11,10.1,9.6,5.6,8l-1.7,5.4c3.3,0.9,6.9,1.7,10.6,2.4l1,0.2l-0.8,0.7c-1.4,1.3-3.8,4.1-7.1,8.1l4.5,3.3
	c1.6-2.2,3.5-5.3,5.6-9.3L18,18z"/>
</svg>
